<svg xmlns="http://www.w3.org/2000/svg" width="1000" height="563" viewBox="0 0 1000 563"><rect width="100%" height="100%" fill="#DDDDDD"/><path fill="#999999" d="M257.86 223.555v75.96q0 9.94-2.44 17.93-2.45 7.99-7.3 13.61-4.85 5.62-12.1 8.64-7.25 3.01-16.87 3.01-4.4 0-8.64-.53t-8.88-1.67q.24-3.26.57-6.52.32-3.26.57-6.52.24-1.79 1.42-2.89 1.19-1.1 3.39-1.1 1.38 0 3.62.57 2.25.57 5.67.57 4.64 0 8.23-1.34 3.59-1.35 5.99-4.28 2.4-2.94 3.63-7.62 1.22-4.69 1.22-11.37v-76.45h21.92Zm58.93 32.93q9.29 0 16.91 3.01 7.62 3.02 13.04 8.56 5.42 5.54 8.35 13.53 2.94 7.99 2.94 17.85 0 9.94-2.94 17.93-2.93 7.98-8.35 13.61-5.42 5.62-13.04 8.64-7.62 3.01-16.91 3.01-9.38 0-17.04-3.01-7.66-3.02-13.08-8.64-5.42-5.63-8.39-13.61-2.98-7.99-2.98-17.93 0-9.86 2.98-17.85 2.97-7.99 8.39-13.53 5.42-5.54 13.08-8.56 7.66-3.01 17.04-3.01Zm0 70.66q10.43 0 15.44-7.01t5.01-20.54q0-13.53-5.01-20.62-5.01-7.09-15.44-7.09-10.6 0-15.69 7.13-5.1 7.13-5.1 20.58t5.1 20.5q5.09 7.05 15.69 7.05Zm76.77-44.91v37.49q3.42 4.16 7.46 5.87 4.03 1.71 8.51 1.71 4.65 0 8.36-1.67 3.71-1.67 6.31-5.22 2.61-3.54 4-9.04 1.38-5.5 1.38-13.17 0-13.77-4.56-19.92-4.56-6.16-13.12-6.16-5.79 0-10.11 2.65-4.32 2.65-8.23 7.46Zm0-61.94v47.76q5.05-5.3 11.21-8.44 6.15-3.13 14.06-3.13 7.25 0 13.08 2.85 5.82 2.85 9.94 8.19 4.11 5.34 6.32 12.92 2.2 7.58 2.2 17.03 0 10.19-2.53 18.5t-7.21 14.22q-4.69 5.91-11.29 9.17-6.6 3.26-14.67 3.26-3.91 0-7.09-.77-3.18-.78-5.87-2.16-2.69-1.39-4.93-3.38-2.24-2-4.28-4.45l-.9 5.63q-.48 2.12-1.67 3.01-1.18.9-3.22.9h-13.28v-121.11h20.13ZM526 257.785v8.31q0 2.12-.74 4.16-.73 2.04-1.95 3.34l-39.69 52.32h41.16v15.49h-64.55v-8.39q0-1.39.65-3.31.65-1.91 1.96-3.62l40.09-52.9h-40.34v-15.4H526Zm51.83-1.3q9.29 0 16.91 3.01 7.62 3.02 13.04 8.56 5.42 5.54 8.36 13.53 2.93 7.99 2.93 17.85 0 9.94-2.93 17.93-2.94 7.98-8.36 13.61-5.42 5.62-13.04 8.64-7.62 3.01-16.91 3.01-9.37 0-17.03-3.01-7.66-3.02-13.08-8.64-5.42-5.63-8.4-13.61-2.97-7.99-2.97-17.93 0-9.86 2.97-17.85 2.98-7.99 8.4-13.53 5.42-5.54 13.08-8.56 7.66-3.01 17.03-3.01Zm0 70.66q10.43 0 15.45-7.01 5.01-7.01 5.01-20.54t-5.01-20.62q-5.02-7.09-15.45-7.09-10.59 0-15.69 7.13-5.09 7.13-5.09 20.58t5.09 20.5q5.1 7.05 15.69 7.05Zm74.09-65.69 1.38 6.6q2.53-2.53 5.34-4.69 2.81-2.16 5.95-3.66 3.14-1.51 6.72-2.37 3.59-.85 7.83-.85 6.84 0 12.14 2.32 5.3 2.32 8.84 6.52 3.55 4.2 5.38 10.02 1.84 5.83 1.84 12.84v53.22H687.2v-53.22q0-7.66-3.5-11.86-3.5-4.2-10.68-4.2-5.21 0-9.78 2.37-4.56 2.36-8.64 6.44v60.47h-20.13v-83.62h12.31q3.91 0 5.14 3.67Zm90.38 28.52h37.98q0-3.91-1.1-7.37-1.1-3.47-3.3-6.07-2.2-2.61-5.59-4.12-3.38-1.51-7.86-1.51-8.72 0-13.73 4.97-5.02 4.98-6.4 14.1Zm51.34 12.15h-51.75q.49 6.44 2.28 11.12 1.8 4.69 4.73 7.74 2.93 3.06 6.97 4.57 4.03 1.51 8.92 1.51t8.44-1.15q3.54-1.14 6.19-2.52 2.65-1.39 4.65-2.53 1.99-1.14 3.87-1.14 2.53 0 3.75 1.88l5.78 7.33q-3.34 3.91-7.49 6.56-4.16 2.65-8.68 4.24-4.53 1.59-9.21 2.24-4.69.65-9.09.65-8.72 0-16.22-2.89-7.5-2.89-13.04-8.56-5.54-5.66-8.72-14.02-3.18-8.35-3.18-19.35 0-8.56 2.77-16.1 2.77-7.54 7.95-13.12 5.17-5.58 12.63-8.84 7.46-3.26 16.83-3.26 7.91 0 14.59 2.52 6.68 2.53 11.49 7.38 4.81 4.85 7.54 11.9 2.73 7.05 2.73 16.09 0 4.57-.98 6.16-.98 1.59-3.75 1.59Z"/></svg>